<svg width="87" height="87" viewBox="0 0 87 87" fill="none" xmlns="http://www.w3.org/2000/svg">
    <rect x="4" y="3" width="80" height="81" fill="#F4B6B6"/>
    <g filter="url(#filter0_d)">
        <path d="M58.9365 78L34.0725 42.384L58.9365 10.8H69.9765L44.4405 42.192L70.2645 78H58.9365ZM23.9925 78V10.8H33.1125V78H23.9925Z"
              fill="#000957"/>
    </g>
    <g style="mix-blend-mode:soft-light">
        <path d="M57.5542 52.1813C56.9924 52.2305 56.575 52.1405 56.302 51.9115C56.0349 51.6819 55.8842 51.3698 55.8496 50.9753C55.8319 50.7721 55.8239 50.5439 55.8259 50.2908C55.8273 50.0317 55.8184 49.7915 55.799 49.5704C55.7708 49.2476 55.699 49.013 55.5838 48.8665C55.4681 48.714 55.2728 48.6498 54.9978 48.6738L54.9508 48.1359C55.2257 48.1118 55.4072 48.0176 55.4952 47.8533C55.5827 47.6831 55.6123 47.4365 55.5841 47.1138C55.5647 46.8926 55.5321 46.6576 55.4862 46.4086C55.4399 46.1537 55.4078 45.9246 55.39 45.7214C55.3555 45.3269 55.4498 44.9934 55.6729 44.7209C55.9019 44.4479 56.2974 44.2868 56.8593 44.2377L57.191 44.2087L57.2451 44.8273L57.003 44.8485C56.6743 44.8772 56.4268 44.9742 56.2606 45.1393C56.0998 45.2979 56.0356 45.5625 56.068 45.9331C56.0863 46.1423 56.1189 46.3774 56.1658 46.6383C56.2122 46.8932 56.2443 47.1223 56.2621 47.3255C56.2888 47.6303 56.2339 47.864 56.0976 48.0265C55.9607 48.183 55.7696 48.3051 55.5243 48.3928L55.5181 48.3211C55.7748 48.3649 55.9845 48.455 56.147 48.5913C56.309 48.7217 56.4033 48.9393 56.43 49.2442C56.4478 49.4474 56.4562 49.6815 56.4553 49.9466C56.4539 50.2057 56.4623 50.4399 56.4806 50.6491C56.513 51.0197 56.6222 51.2691 56.8081 51.3974C57.0005 51.5311 57.261 51.5836 57.5898 51.5549L57.8319 51.5337L57.886 52.1523L57.5542 52.1813ZM60.1042 50.8199C59.6081 50.8633 59.1808 50.7983 58.8224 50.6249C58.4699 50.451 58.192 50.2012 57.9889 49.8757C57.7917 49.5496 57.6748 49.1774 57.6382 48.759C57.6001 48.3227 57.6465 47.9241 57.7775 47.5633C57.9141 47.196 58.1468 46.8956 58.4756 46.662C58.8045 46.4285 59.235 46.2884 59.7669 46.2419C59.9941 46.222 60.2113 46.2271 60.4188 46.2571C60.6321 46.2867 60.8229 46.3332 60.9911 46.3968L60.9276 47.1161C60.7534 47.053 60.5718 47.0087 60.3829 46.983C60.1994 46.9509 60.009 46.9435 59.8118 46.9607C59.3276 47.0031 58.9691 47.173 58.7361 47.4704C58.5091 47.7673 58.4171 48.1608 58.4599 48.651C58.5018 49.1292 58.655 49.5042 58.9198 49.7762C59.1899 50.0416 59.5731 50.1527 60.0692 50.1093C60.2724 50.0915 60.4645 50.0506 60.6457 49.9866C60.8327 49.922 61.0063 49.8406 61.1663 49.7423L61.3304 50.3784C61.2182 50.4725 61.0487 50.5656 60.8218 50.6578C60.6004 50.7434 60.3612 50.7974 60.1042 50.8199ZM64.0605 50.4738C63.6003 50.5141 63.1969 50.447 62.8504 50.2725C62.5098 50.0975 62.2377 49.8443 62.034 49.5128C61.8363 49.1807 61.7189 48.8025 61.6818 48.3781C61.6447 47.9538 61.6946 47.5609 61.8317 47.1996C61.9747 46.8377 62.1987 46.5411 62.5037 46.3096C62.8146 46.0776 63.2002 45.9415 63.6605 45.9013C64.1207 45.861 64.5211 45.9284 64.8616 46.1033C65.2022 46.2783 65.4743 46.5316 65.678 46.8631C65.8816 47.1946 66.002 47.5725 66.0392 47.9969C66.0763 48.4213 66.0234 48.8144 65.8803 49.1762C65.7373 49.5381 65.5133 49.8347 65.2084 50.0662C64.9034 50.2977 64.5208 50.4335 64.0605 50.4738ZM63.9978 49.7565C64.4341 49.7184 64.7568 49.5516 64.9658 49.2563C65.1749 48.9609 65.2577 48.5652 65.2143 48.0691C65.1709 47.573 65.0206 47.1976 64.7635 46.9431C64.5063 46.6885 64.1595 46.5803 63.7232 46.6185C63.2869 46.6567 62.9642 46.8235 62.7551 47.1188C62.5461 47.4141 62.4633 47.8099 62.5067 48.306C62.5501 48.8021 62.7003 49.1774 62.9575 49.432C63.2147 49.6865 63.5614 49.7947 63.9978 49.7565ZM68.8554 50.0543C68.4789 50.0872 68.1293 50.0154 67.8067 49.8389C67.49 49.6618 67.2272 49.4108 67.018 49.0857C66.8144 48.7542 66.694 48.3763 66.6568 47.9519C66.6213 47.5455 66.669 47.1618 66.8001 46.801C66.9311 46.4403 67.1367 46.1392 67.4167 45.8979C67.6967 45.6565 68.043 45.5178 68.4554 45.4818C68.7483 45.4561 69.0377 45.4941 69.3236 45.5955C69.6095 45.697 69.8493 45.8898 70.0428 46.174L69.8826 46.3055L69.6042 43.1227L70.4111 43.0521L70.9994 49.7764L70.2821 49.8391L70.0481 48.92L70.2669 49.0454C70.161 49.3498 69.9771 49.5888 69.7153 49.7622C69.4588 49.9292 69.1722 50.0266 68.8554 50.0543ZM68.9361 49.3245C69.1394 49.3067 69.3351 49.2384 69.5235 49.1195C69.7113 48.9947 69.8611 48.8129 69.9727 48.5743C70.0838 48.3297 70.1231 48.0221 70.0907 47.6515C70.0604 47.3048 69.9693 47.0207 69.8174 46.7991C69.6655 46.5775 69.4857 46.4155 69.278 46.3132C69.0703 46.2109 68.8648 46.1687 68.6616 46.1865C68.3866 46.2105 68.1566 46.2999 67.9713 46.4546C67.7861 46.6094 67.6502 46.811 67.5635 47.0595C67.4828 47.3075 67.4555 47.5809 67.4817 47.8797C67.5068 48.1666 67.5806 48.4252 67.7031 48.6554C67.8311 48.8791 68 49.054 68.2098 49.1802C68.4191 49.3005 68.6612 49.3485 68.9361 49.3245ZM74.2411 49.5831C73.727 49.6281 73.2815 49.5617 72.9046 49.3838C72.5331 49.1995 72.2426 48.9418 72.0329 48.6109C71.8227 48.2739 71.6991 47.8932 71.662 47.4688C71.6259 47.0564 71.6766 46.6725 71.8142 46.3172C71.9577 45.9613 72.179 45.6679 72.478 45.437C72.783 45.2055 73.1626 45.0699 73.6169 45.0302C73.9815 44.9983 74.3105 45.0418 74.604 45.1606C74.9034 45.279 75.1462 45.4716 75.3321 45.7384C75.5235 45.9987 75.6365 46.3261 75.671 46.7206C75.6768 46.7863 75.6798 46.8553 75.6801 46.9276C75.6804 46.9998 75.678 47.0753 75.6728 47.1541L72.49 47.4325C72.5674 47.8353 72.6937 48.1435 72.869 48.357C73.0442 48.5706 73.2526 48.715 73.4941 48.7902C73.7351 48.8595 73.996 48.8818 74.2769 48.8572C74.4801 48.8394 74.6905 48.8 74.908 48.7388C75.1255 48.6776 75.3289 48.5935 75.5183 48.4866L75.6816 49.1138C75.5211 49.2061 75.3187 49.3021 75.0744 49.4018C74.8356 49.495 74.5578 49.5554 74.2411 49.5831ZM72.513 46.8704L74.8262 46.668C74.8079 46.4588 74.7534 46.2829 74.6626 46.1403C74.5718 45.9976 74.4421 45.8915 74.2734 45.822C74.1106 45.7519 73.9067 45.7276 73.6617 45.749C73.3031 45.7804 73.033 45.8944 72.8514 46.0909C72.6758 46.287 72.563 46.5468 72.513 46.8704ZM76.0741 50.5611L76.0199 49.9424L76.262 49.9213C76.5908 49.8925 76.8353 49.7958 76.9955 49.6312C77.1623 49.4721 77.2295 49.2072 77.197 48.8366C77.1787 48.6274 77.1464 48.3954 77.1 48.1404C77.0531 47.8795 77.0207 47.6475 77.0029 47.4443C76.9763 47.1394 77.0314 46.9087 77.1683 46.7522C77.3046 46.5897 77.4954 46.4646 77.7407 46.3769L77.747 46.4486C77.4902 46.4048 77.2808 46.3178 77.1188 46.1874C76.9563 46.051 76.8618 45.8304 76.8351 45.5256C76.8173 45.3224 76.8091 45.0912 76.8105 44.8321C76.8114 44.567 76.8027 44.3299 76.7844 44.1207C76.752 43.7501 76.6399 43.5009 76.448 43.3731C76.2616 43.2389 76.004 43.1861 75.6753 43.2149L75.4332 43.2361L75.3791 42.6174L75.7108 42.5884C76.2727 42.5392 76.6871 42.6295 76.9541 42.8591C77.2271 43.0881 77.3809 43.3999 77.4154 43.7944C77.4332 43.9976 77.4414 44.2288 77.4399 44.4879C77.438 44.7411 77.4467 44.9782 77.466 45.1994C77.4943 45.5221 77.5663 45.7597 77.682 45.9122C77.7972 46.0588 77.9923 46.12 78.2672 46.0959L78.3143 46.6339C78.0394 46.6579 77.8581 46.7551 77.7706 46.9254C77.6826 47.0897 77.6527 47.3332 77.681 47.656C77.7003 47.8771 77.7332 48.1152 77.7796 48.3701C77.8255 48.619 77.8573 48.8451 77.8751 49.0483C77.9096 49.4428 77.8123 49.7766 77.5832 50.0496C77.3601 50.3221 76.9676 50.4829 76.4058 50.5321L76.0741 50.5611Z"
              fill="black"/>
    </g>
    <defs>
        <filter id="filter0_d" x="19.9925" y="10.8" width="54.272" height="75.2" filterUnits="userSpaceOnUse"
                color-interpolation-filters="sRGB">
            <feFlood flood-opacity="0" result="BackgroundImageFix"/>
            <feColorMatrix in="SourceAlpha" type="matrix" values="0 0 0 0 0 0 0 0 0 0 0 0 0 0 0 0 0 0 127 0"/>
            <feOffset dy="4"/>
            <feGaussianBlur stdDeviation="2"/>
            <feColorMatrix type="matrix" values="0 0 0 0 0 0 0 0 0 0 0 0 0 0 0 0 0 0 0.25 0"/>
            <feBlend mode="normal" in2="BackgroundImageFix" result="effect1_dropShadow"/>
            <feBlend mode="normal" in="SourceGraphic" in2="effect1_dropShadow" result="shape"/>
        </filter>
    </defs>
</svg>
